<svg width="63" height="88" viewBox="0 0 63 88" fill="none" xmlns="http://www.w3.org/2000/svg">
<path fill-rule="evenodd" clip-rule="evenodd" d="M6.34863 34.4698C6.84808 34.1954 7.51851 34.0694 8.06295 33.7724C8.91786 33.3225 9.74575 32.67 10.7716 32.2966C11.7975 31.9231 12.9674 31.9456 13.9663 32.2606C14.7132 32.3866 15.3701 32.643 16.0316 32.9805C16.6975 33.3135 17.3589 33.7499 18.1284 34.2854C18.7898 34.7533 19.4647 35.1943 20.0496 35.7072C22.5604 37.948 24.4097 40.6567 25.6426 43.8378C25.7596 44.1663 25.899 44.5173 26.0025 44.8952C26.1195 45.3272 26.286 45.7951 26.3895 46.2766C26.448 46.515 26.502 46.749 26.556 46.9785C26.5965 47.208 26.628 47.4329 26.655 47.6444C26.718 48.1034 26.6729 48.5218 26.5784 48.8323C26.484 49.1428 26.34 49.3452 26.169 49.3992C25.7191 48.8098 25.6111 47.343 25.1881 45.9706C24.8551 44.8187 24.3422 43.4824 23.7032 42.2135C23.0643 40.9446 22.2904 39.7658 21.5885 38.8479C20.5041 37.444 19.2037 36.1886 17.8584 35.1268C16.4725 34.0424 14.9652 33.1785 13.3859 32.805C12.2385 32.5215 11.0821 32.5485 9.99774 33.039C8.84136 33.5339 7.69399 34.3124 6.34863 34.4698Z" fill="#1C663A"/>
<path d="M17.593 39.1943C15.4377 42.605 4.15741 34.4518 0.508301 38.1459C0.548796 37.9974 3.28902 28.3955 9.43986 26.3257C15.6447 24.2379 22.5604 27.0366 17.188 33.9524C17.188 33.9479 19.7483 35.7882 17.593 39.1943Z" fill="#278F51"/>
<path d="M17.593 39.1943C15.4377 42.6049 4.15741 34.4518 0.508301 38.1459C6.71314 28.6384 17.188 33.9524 17.188 33.9524C17.188 33.9524 19.7483 35.7882 17.593 39.1943Z" fill="#32B768"/>
<path fill-rule="evenodd" clip-rule="evenodd" d="M9.38623 13.5111C9.74619 13.6236 10.1106 13.8351 10.4706 14.069C10.8261 14.312 11.168 14.591 11.5145 14.8205C12.5899 15.5764 13.7463 16.4223 14.8441 17.3762C15.9465 18.3256 16.9814 19.3965 17.8408 20.5214C19.2132 22.0152 20.1851 23.464 21.4629 25.6598C22.0209 26.6047 22.5788 27.5406 23.0378 28.49C24.9725 32.6161 26.1019 36.8186 26.6914 41.3766C26.7454 41.8446 26.8084 42.3485 26.8444 42.8705C26.9523 44.0718 27.0603 45.5252 27.0423 46.6591C27.0198 47.9054 26.6779 48.8368 26.3269 48.9313C25.9579 48.0674 26.0254 46.0156 25.85 44.0448C25.7105 42.389 25.481 40.4182 25.1075 38.4834C24.7476 36.5486 24.2571 34.6588 23.7667 33.1335C23.3977 31.9636 22.9613 30.8028 22.4798 29.6779C22.0074 28.5485 21.4719 27.4551 20.914 26.4022C19.7756 24.2425 18.4078 22.2852 16.9364 20.4584C15.861 19.131 14.7722 17.8711 13.5483 16.7553C12.2434 15.5674 10.8576 14.483 9.38623 13.5111Z" fill="#1C663A"/>
<path d="M18.6101 15.6079C18.4706 17.7857 17.0982 19.8644 17.0982 19.8644L15.6899 18.3391L13.7776 10.8789C14.7585 11.0319 15.5549 11.2704 16.1983 11.5718C18.2006 12.5167 18.7046 14.0871 18.6101 15.6079Z" fill="#278F51"/>
<path d="M15.6898 18.339C15.6898 18.339 16.8597 9.35348 11.5638 8.07111C6.26783 6.78425 0 13.2051 0 13.2051C0 13.2051 8.76506 13.547 15.6898 18.339Z" fill="#32B768"/>
<path d="M18.61 15.6079C17.7416 16.7643 17.1072 18.3391 17.1072 18.3391C16.1713 15.6754 16.2028 11.5718 16.2028 11.5718C18.2005 12.5167 18.7045 14.0871 18.61 15.6079Z" fill="#1C663A"/>
<path fill-rule="evenodd" clip-rule="evenodd" d="M24.7971 5.31738C25.4361 5.84383 25.8635 6.81122 26.2325 7.63013C27.4608 10.2399 28.2437 13.601 28.4867 16.6787C28.6622 17.7765 28.7477 18.8024 28.7882 19.9003C28.8062 20.4493 28.8197 21.0162 28.8197 21.6191C28.8017 22.2221 28.7837 22.861 28.7612 23.5539C28.7297 24.7508 28.7882 25.9432 28.7522 27.0861C28.6487 29.5563 28.5497 31.9545 28.4507 34.3573C28.3427 36.76 28.2437 39.1673 28.0773 41.669C28.0413 42.1819 27.9963 42.7309 27.9423 43.3023C27.8163 44.6117 27.6903 46.2 27.4653 47.4239C27.2269 48.7692 26.7274 49.7231 26.3584 49.7726C26.156 48.7782 26.5654 46.5645 26.7454 44.3957C27.0739 40.7556 27.2899 35.6441 27.4968 32.0895C27.6408 29.3628 27.7938 26.5911 27.9018 23.9679C28.0997 21.2637 27.9963 18.6495 27.7488 16.0757C27.5643 14.2039 27.3888 12.3726 26.9794 10.6088C26.5429 8.72802 25.8905 6.90121 24.7971 5.31738Z" fill="#1C663A"/>
<path d="M25.6607 11.4097C21.1477 12.8181 18.3265 13.9475 17.2016 16.6967C17.2016 16.6967 15.4378 12.1117 17.2016 6.40178C18.9655 0.691889 24.1129 -2.97522 26.0162 3.22962C26.0162 3.22962 30.0343 1.82127 31.7261 4.28701C33.4179 6.75274 30.1782 9.99689 25.6607 11.4097Z" fill="#278F51"/>
<path d="M25.6607 11.4097C21.1477 12.818 18.3265 13.9474 17.2017 16.6966C17.9081 6.40169 26.0162 3.22953 26.0162 3.22953C26.0162 3.22953 30.0343 1.82118 31.7261 4.28691C33.4179 6.75265 30.1783 9.9968 25.6607 11.4097Z" fill="#32B768"/>
<path fill-rule="evenodd" clip-rule="evenodd" d="M35.1771 10.8428C35.1322 11.5582 34.7182 12.3501 34.4752 13.0925C33.7193 15.4548 33.1029 18.294 32.293 20.8047C31.906 22.6585 31.4156 24.1973 30.8801 26.5101C30.6416 27.5045 30.5157 28.5124 30.3042 29.4663C29.4403 33.6058 28.7203 37.5249 28.0949 41.7365C28.0274 42.1684 27.9599 42.6319 27.8834 43.1133C27.7035 44.2202 27.5775 45.5611 27.393 46.5959C27.204 47.7343 26.7946 48.5622 26.4256 48.6252C26.1376 47.7793 26.4211 45.84 26.6551 43.9727C27.033 40.8276 27.798 36.4945 28.4189 33.4978C28.8823 31.1941 29.3998 28.8678 29.9667 26.6631C30.5562 24.3998 31.1411 22.1996 31.807 20.0533C32.0545 19.2749 32.3245 18.5145 32.5854 17.7585C32.8599 17.0071 33.1344 16.2692 33.3909 15.5268C33.6788 14.7394 33.9668 13.9564 34.2502 13.169C34.5652 12.3951 34.8712 11.6212 35.1771 10.8428Z" fill="#1C663A"/>
<path d="M42.489 8.35004C42.489 8.35004 37.0446 10.7393 33.6474 15.7653C33.6474 15.7653 31.1187 15.9317 32.1806 12.6291C33.2425 9.33094 38.8759 6.66722 42.489 8.35004Z" fill="#32B768"/>
<path fill-rule="evenodd" clip-rule="evenodd" d="M49.0627 15.8057C48.8197 15.4097 48.3607 15.2972 47.9288 15.2477C47.7083 15.2207 47.4833 15.2297 47.2583 15.2297C47.0334 15.2297 46.8129 15.2297 46.6014 15.2612C45.922 15.3242 45.2336 15.5042 44.5451 15.7112C43.8612 15.9451 43.1818 16.2286 42.5248 16.5706C41.211 17.259 39.9826 18.1229 38.8578 19.0093C38.1153 19.7202 37.4404 20.3862 36.7655 21.1421C36.4325 21.5246 36.0905 21.9205 35.7261 22.3435C35.3886 22.7889 35.0241 23.2524 34.6507 23.7788C34.3492 24.2423 34.0568 24.7147 33.7823 25.1827C33.5258 25.6641 33.2738 26.1411 33.0129 26.5955C30.8441 30.6271 29.5572 34.7936 28.6123 39.3156C28.5089 39.7791 28.4144 40.2785 28.3064 40.796C28.0589 41.9884 27.8744 43.4417 27.6629 44.5711C27.4335 45.8085 27.015 46.7129 26.6461 46.7759C26.3761 45.8535 26.691 43.7342 27.0285 41.7004C27.3075 39.9906 27.7169 37.9523 28.2479 35.959C28.7698 33.9612 29.4493 32.0174 30.0837 30.4516C31.0556 28.0489 32.266 25.6866 33.7328 23.6258C34.4797 22.5639 35.2896 21.574 36.1445 20.6336C36.9949 19.6932 37.9308 18.8338 38.9387 18.0869C40.4011 16.9845 42.0164 16.1971 43.6812 15.6482C44.5721 15.3647 45.4945 15.1757 46.4214 15.1037C46.8849 15.0587 47.3438 15.0677 47.8163 15.0812C48.0548 15.1037 48.2977 15.1487 48.5272 15.2522C48.7657 15.3512 48.9862 15.5492 49.0627 15.8057Z" fill="#1C663A"/>
<path d="M62.1069 25.6461C62.1069 25.6461 62.0214 25.4842 61.8504 25.2232C61.1395 24.1298 58.9572 21.2861 55.5646 21.3221C51.3665 21.3671 44.5992 24.7507 42.7544 22.438C40.9141 20.1252 41.571 17.799 43.2314 16.1567C43.2314 16.1567 40.3202 13.4614 44.3787 10.8787C48.4418 8.296 61.4454 12.647 62.1069 25.6461Z" fill="#278F51"/>
<path d="M61.8457 25.2232C61.1348 24.1298 58.9526 21.2861 55.5599 21.3221C51.3619 21.3671 44.5946 24.7507 42.7498 22.438C40.9095 20.1252 41.5664 17.799 43.2267 16.1567C43.2357 16.1567 55.7354 9.19591 61.8457 25.2232Z" fill="#32B768"/>
<path fill-rule="evenodd" clip-rule="evenodd" d="M51.9963 36.8501C51.4968 36.5126 51.1144 35.8872 50.6194 35.4597C49.841 34.7848 48.8646 34.2314 47.8342 33.8039C46.7993 33.3719 45.7059 33.093 44.6575 32.859C43.8836 32.796 43.1772 32.7555 42.4168 32.76C41.6564 32.769 40.8464 32.8275 39.9016 33.0255C39.0871 33.1965 38.3222 33.5114 37.5888 33.7949C35.996 34.4113 34.5471 35.2437 33.2153 36.2336C31.8924 37.2235 30.691 38.3889 29.7236 39.7748C29.6247 39.9187 29.5257 40.0672 29.4222 40.2202C29.3232 40.3777 29.2242 40.5352 29.1252 40.6972C28.6618 41.4531 28.3108 42.452 28.0813 43.2304C27.8159 44.0763 27.5009 44.7467 27.1319 44.8232C26.745 44.1303 27.0644 42.389 27.7754 40.9356C28.0633 40.3192 28.4323 39.6668 28.8822 39.0323C29.3322 38.4024 29.8541 37.786 30.4166 37.219C31.537 36.0717 32.8328 35.1448 33.9352 34.4698C35.6315 33.4349 37.5258 32.634 39.4426 32.2651C41.3954 31.8826 43.3977 31.8421 45.2695 32.3011C46.6329 32.634 47.8657 33.237 48.9861 33.9479C50.1785 34.7083 51.2178 35.6982 51.9963 36.8501Z" fill="#1C663A"/>
<path d="M56.4689 42.4249C49.9221 35.9501 40.5046 44.9401 37.2064 40.7871C33.9128 36.634 38.5563 33.0704 38.5563 33.0704C36.0411 29.9747 39.8522 24.8003 48.0503 28.8994C56.2529 33.0029 56.4689 42.4249 56.4689 42.4249Z" fill="#278F51"/>
<path d="M56.4689 42.4249C49.9221 35.9501 40.5046 44.9401 37.2064 40.7871C33.9128 36.634 38.5563 33.0704 38.5563 33.0704C38.5563 33.0704 49.9941 26.0962 56.4689 42.4249Z" fill="#32B768"/>
<path d="M40.5855 48.4047V78.7495C40.5855 83.5955 36.6529 87.5281 31.8069 87.5281H22.7224C17.8719 87.5281 13.9438 83.5955 13.9438 78.7495V48.4047C13.9438 47.9728 14.2948 47.6218 14.7268 47.6218H39.8026C40.2345 47.6218 40.5855 47.9728 40.5855 48.4047Z" fill="white"/>
<path opacity="0.36" d="M40.5855 54.7762H13.9438V56.9584H40.5855V54.7762Z" fill="#AFE1C4"/>
<path opacity="0.36" d="M40.5855 59.5366H13.9438V61.7189H40.5855V59.5366Z" fill="#AFE1C4"/>
<path opacity="0.36" d="M40.5855 57.9213H13.9438V58.5738H40.5855V57.9213Z" fill="#AFE1C4"/>
</svg>
