<svg width="64" height="69" viewBox="0 0 64 69" fill="none" xmlns="http://www.w3.org/2000/svg">
<path d="M63.2188 33.0592C63.2188 33.0592 59.8937 28.9106 56.1501 30.6204C52.411 32.3302 51.2681 37.9141 51.2681 37.9141L45.9316 36.1053C45.9271 36.1053 55.3177 19.5471 63.2188 33.0592Z" fill="#278F51"/>
<path d="M55.2411 36.4117V63.5393C55.2411 65.7935 53.6483 67.6698 51.5245 68.1108C51.214 68.1738 50.8946 68.2098 50.5661 68.2098H15.7443C15.4159 68.2098 15.0964 68.1738 14.7859 68.1108C12.6667 67.6698 11.0693 65.789 11.0693 63.5393V36.4117C11.0693 35.9122 11.4743 35.5073 11.9737 35.5073H54.3322C54.8362 35.5073 55.2411 35.9122 55.2411 36.4117Z" fill="white"/>
<path d="M11.9786 35.5069C11.4792 35.5069 11.0742 35.9119 11.0742 36.4113V50.2608C12.4511 55.9437 15.4973 61.7841 15.4973 61.7841C24.4513 57.5186 26.899 48.596 26.71 43.1111C26.6965 42.6611 26.6605 42.2382 26.611 41.8422L32.4064 47.0482C32.4064 47.0482 33.3558 40.1099 31.6865 35.6104C31.9745 36.0019 32.3074 36.3663 32.6719 36.6948C35.7181 39.4215 36.7845 43.5745 36.7845 43.5745C36.7845 43.5745 42.0354 38.931 43.7857 35.5834C43.7992 35.5564 43.8127 35.5294 43.8262 35.5024H11.9786V35.5069ZM21.9091 37.8871C21.5356 37.9681 21.1891 38.0806 20.8832 38.1976C20.8787 37.8737 20.8472 37.5587 20.7887 37.2527C20.7302 36.9468 20.6447 36.6543 20.5277 36.3753L22.1565 37.8377C22.0755 37.8557 21.9946 37.8737 21.9091 37.8871Z" fill="#D3E0D7"/>
<path fill-rule="evenodd" clip-rule="evenodd" d="M18.2686 4.2127C18.516 3.97872 18.9165 4.05972 19.2315 4.07322C19.7489 4.07772 20.3248 4.14072 20.8873 4.3342C21.4452 4.52318 21.9852 4.82914 22.3856 5.2476C23.0831 5.71105 23.5015 6.33197 23.9784 7.24987C24.1854 7.64583 24.4284 8.03279 24.5679 8.44224C25.1573 10.2286 25.2293 12.0014 25.1618 13.8417C25.1528 14.0306 25.1348 14.2376 25.1123 14.4446C25.0583 14.9306 25.0313 15.5155 24.9189 15.9654C24.7929 16.4559 24.4149 16.7664 24.0594 16.7349C23.749 16.3254 23.9425 15.547 23.992 14.7686C24.0864 13.4682 24.1314 11.6459 23.9694 10.422C23.8569 9.48164 23.614 8.55923 23.2765 7.74032C22.9301 6.88991 22.4081 6.1835 21.7692 5.59856C21.3102 5.17111 20.8198 4.76615 20.2393 4.52767C19.6274 4.2802 18.957 4.16321 18.2686 4.2127Z" fill="#1C663A"/>
<path fill-rule="evenodd" clip-rule="evenodd" d="M36.5095 17.3828C36.4555 17.0273 36.7345 16.7259 36.856 16.4064C37.2474 15.3805 37.4274 14.1072 37.6119 12.9958C37.5804 12.5863 37.5669 12.2128 37.5219 11.8214C37.4769 11.4299 37.4049 11.0115 37.2159 10.557C37.045 10.1611 36.7615 9.8506 36.5005 9.57163C35.9381 8.9597 35.1687 8.57274 34.4218 8.53675C33.6793 8.49175 32.9684 8.86521 32.3385 9.43665C32.208 9.55814 32.0685 9.68862 31.9245 9.8236C31.5915 10.1476 31.2541 10.6155 30.9571 10.9395C30.6242 11.295 30.1697 11.4344 29.8457 11.277C29.7152 10.7595 30.2777 10.0531 30.8311 9.40065C31.2946 8.85171 31.9245 8.19479 32.7974 7.78083C33.2294 7.57385 33.7198 7.45236 34.1968 7.44786C34.6692 7.43886 35.1102 7.53336 35.4791 7.66834C36.6085 8.0778 37.5399 9.01369 37.9359 10.0801C38.3543 11.16 38.4263 12.2848 38.2463 13.3197C38.1114 14.0802 37.8054 14.7461 37.5309 15.394C37.2249 16.0959 36.874 16.7484 36.5095 17.3828Z" fill="#1C663A"/>
<path fill-rule="evenodd" clip-rule="evenodd" d="M39.0608 15.745C38.9933 15.4975 39.2093 15.367 39.2813 15.1736C39.5063 14.5571 39.3623 13.8102 39.4073 13.1758C39.2408 12.7303 39.2318 12.3389 38.9978 11.8079C38.8943 11.5784 38.7053 11.3985 38.5794 11.205C38.0259 10.3681 37.342 9.65715 36.5186 9.17121C36.4331 9.12171 36.3476 9.06771 36.2531 9.01372C36.0371 8.88773 35.7492 8.82474 35.5467 8.73025C35.3307 8.62226 35.1777 8.30279 35.1822 7.94283C35.4387 7.57387 36.0191 7.73136 36.5051 7.93384C36.928 8.09132 37.387 8.37479 37.7874 8.70776C38.1879 9.04072 38.5298 9.42317 38.7863 9.75163C39.1823 10.2556 39.5377 10.818 39.7447 11.4255C39.9562 12.0374 40.1092 12.6763 40.0732 13.3063C40.0507 13.7697 39.8887 14.1972 39.7447 14.5976C39.5962 15.0206 39.3578 15.4165 39.0608 15.745Z" fill="#1C663A"/>
<path fill-rule="evenodd" clip-rule="evenodd" d="M14.2325 32.9287C13.967 32.9332 13.8725 32.6632 13.706 32.5192C13.1976 32.0512 12.4642 31.5698 12.1132 30.8859C11.9107 30.6969 11.7488 30.4944 11.6138 30.2604C11.4698 30.031 11.3348 29.7745 11.1683 29.4775C11.0109 29.2255 10.8219 28.9871 10.6824 28.7351C10.1424 27.6192 9.79597 26.4808 9.61149 25.2255C9.59799 25.095 9.58449 24.9555 9.57549 24.8115C9.55299 24.4786 9.50349 24.0781 9.54399 23.7631C9.60248 23.4167 9.91745 23.1782 10.2729 23.1782C10.6509 23.4302 10.5789 23.9476 10.6374 24.4561C10.7229 25.3065 10.9389 26.4718 11.1908 27.2593C11.3663 27.8667 11.6408 28.4471 11.8747 29.0141C12.1222 29.5945 12.4507 30.112 12.7476 30.6429C12.8601 30.8319 12.9636 31.0299 13.0581 31.2278C13.1661 31.4213 13.2741 31.6103 13.3911 31.7948C13.5261 31.9793 13.6611 32.1682 13.8005 32.3617C13.94 32.5462 14.084 32.7352 14.2325 32.9287Z" fill="#1C663A"/>
<path fill-rule="evenodd" clip-rule="evenodd" d="M17.3642 37.5946C17.1302 37.3291 17.1932 36.9197 17.1258 36.5822C16.9413 35.5068 16.6038 34.2245 16.7298 33.0411C16.6803 32.6181 16.6713 32.2222 16.7118 31.8037C16.7298 31.5923 16.7478 31.3763 16.7658 31.1468C16.7928 30.9173 16.8198 30.6743 16.8558 30.4089C16.8918 29.9499 16.9053 29.491 16.9637 29.05C17.2922 27.1647 17.8502 25.4189 18.6781 23.6596C18.7681 23.4796 18.8716 23.2906 18.9796 23.0972C19.2225 22.6472 19.5105 22.0983 19.7985 21.7113C20.1359 21.2974 20.6084 21.1444 20.9188 21.3199C21.0358 21.8418 20.5184 22.4987 20.1449 23.2231C19.497 24.4245 18.7636 26.1748 18.3901 27.4392C18.0796 28.4021 17.8997 29.4145 17.7062 30.3729C17.5172 31.3628 17.4632 32.3437 17.3822 33.3111C17.3642 33.662 17.3327 34.013 17.2967 34.3595C17.2742 34.7059 17.2607 35.0524 17.2562 35.3943C17.2697 35.7588 17.2787 36.1233 17.2922 36.4922C17.3147 36.8567 17.3372 37.2211 17.3642 37.5946Z" fill="#1C663A"/>
<path d="M18.9839 30.4089L22.282 33.6306C22.282 33.6306 35.6456 34.1345 35.6366 33.9455C35.6276 33.7566 34.4892 20.5955 34.4892 20.5955L22.0255 23.3807L18.9839 30.4089Z" fill="#2D5000"/>
<path d="M43.0386 27.1332C43.0386 27.1332 47.4391 27.5697 48.816 27.8667C48.816 27.8667 45.4638 30.7599 43.835 31.1063L43.0386 27.1332Z" fill="#278F51"/>
<path d="M45.7607 19.8531C45.3872 22.8453 44.3388 24.9105 43.0385 26.3324C39.8078 29.8645 35.0023 29.4506 35.0023 29.4506C35.0023 29.4506 31.5917 22.3818 35.8843 19.8531C37.4546 18.9307 39.2004 18.6832 40.7797 18.7372C43.5199 18.8362 45.7607 19.8531 45.7607 19.8531Z" fill="#32B768"/>
<path d="M43.0385 26.3324C39.8078 29.8645 35.0023 29.4506 35.0023 29.4506C35.0023 29.4506 31.5917 22.3818 35.8843 19.8531C37.4546 18.9307 39.2004 18.6832 40.7797 18.7372L35.3578 24.8926C35.3578 24.8926 38.5615 25.5495 39.1374 26.8138C39.1419 26.8138 41.2792 25.7115 43.0385 26.3324Z" fill="#1C663A"/>
<path d="M45.7608 13.8867L33.7336 25.6079L31.0969 28.1772C31.0204 28.1322 30.9484 28.0872 30.8719 28.0377C29.8236 27.3717 28.9282 26.6203 28.2892 25.7609C26.7774 23.7271 26.6784 21.0814 29.3151 17.5403C29.972 16.6584 30.8854 15.9745 31.9518 15.439C37.0993 12.8563 45.7608 13.8867 45.7608 13.8867Z" fill="#278F51"/>
<path d="M28.2892 25.7563C26.7774 23.7226 26.6784 21.0768 29.3151 17.5357C29.972 16.6538 30.8854 15.9699 31.9518 15.4344C31.9518 15.4344 32.6223 21.2208 28.2892 25.7563Z" fill="#1C663A"/>
<path d="M33.7335 25.6078L31.0968 28.177C31.0203 28.132 30.9483 28.0871 30.8718 28.0376C31.7987 25.7248 33.7335 25.6078 33.7335 25.6078Z" fill="#1C663A"/>
<path d="M16.1583 60.1238C16.1583 60.1238 12.0862 52.3126 11.2313 45.9728C11.0288 44.461 11.0064 43.0301 11.2628 41.8107C12.6127 35.4799 17.9311 33.9231 20.3743 37.1042C20.3743 37.1042 20.8423 36.8073 21.5442 36.5373C21.8457 36.4203 22.1967 36.3078 22.5701 36.2268C23.7175 35.9794 25.1033 36.0199 26.1967 37.1042C26.8312 37.7342 27.2946 39.336 27.3666 41.4508C27.5601 46.9357 25.1123 55.8582 16.1583 60.1238Z" fill="#278F51"/>
<path d="M16.1582 60.1238C16.7251 53.3745 17.7555 47.7006 18.6509 43.678C19.5823 39.5115 20.3742 37.1087 20.3742 37.1087C20.3742 37.1087 20.8422 36.8118 21.5441 36.5418C21.8456 36.4248 22.1966 36.3123 22.57 36.2313C23.7174 35.9838 25.1032 36.0243 26.1966 37.1087C26.8311 37.7387 27.2945 39.3405 27.3665 41.4553C27.56 46.9357 25.1122 55.8582 16.1582 60.1238Z" fill="#32B768"/>
<path d="M19.5108 42.882C19.2634 43.1744 18.9709 43.4354 18.6559 43.6784C16.5501 45.2712 13.144 45.8022 11.2362 45.9776C11.0337 44.4658 11.0112 43.035 11.2677 41.8156C12.6176 35.4848 17.936 33.9279 20.3792 37.1091C20.3792 37.1091 20.8472 36.8121 21.5491 36.5422C21.5491 36.5422 22.152 39.7953 19.5108 42.882Z" fill="#1C663A"/>
<path d="M27.3712 41.4553L22.5747 36.2313C23.7221 35.9838 25.1079 36.0243 26.2013 37.1087C26.8357 37.7387 27.2992 39.3405 27.3712 41.4553Z" fill="#1C663A"/>
<path d="M31.547 14.8631C31.358 15.2185 31.1465 15.5425 30.9081 15.8305L25.6166 14.7011L21.774 13.8822C21.774 13.8822 21.756 13.0453 22.215 11.8529C23.0744 9.63013 25.6031 6.1565 33.0183 4.50967C33.0183 4.51417 33.5088 11.1915 31.547 14.8631Z" fill="#278F51"/>
<path d="M31.5467 14.8631C31.3577 15.2186 31.1462 15.5425 30.9078 15.8305L25.6163 14.7011C25.5578 14.2422 25.5488 13.7967 25.5758 13.3693C25.9313 7.74036 33.0225 4.5097 33.0225 4.5097C33.0225 4.5097 33.5085 11.1915 31.5467 14.8631Z" fill="#32B768"/>
<path d="M31.5467 14.8631C31.3578 15.2186 31.1463 15.5425 30.9078 15.835L25.6164 14.7056L21.7738 13.8867C21.7738 13.8867 21.7558 13.0498 22.2147 11.8574C22.2147 11.8574 24.4645 12.3749 24.424 13.8867C24.424 13.8867 24.8829 13.6482 25.5714 13.3738C27.5107 12.5953 31.2588 11.547 31.5467 14.8631Z" fill="#1C663A"/>
<path d="M10.7632 27.9881C10.6912 28.0961 8.14453 32.0107 3.32105 30.8948C-1.56993 29.761 -1.14249 21.3964 5.16133 13.8867C5.16133 13.8867 13.0355 14.3366 14.7273 20.3345C16.4281 26.3323 14.0254 29.194 10.7632 27.9881Z" fill="#278F51"/>
<path d="M10.7632 27.9881C10.6912 28.0961 8.14453 32.0107 3.32105 30.8948C-1.56993 29.761 -1.14249 21.3964 5.16133 13.8867C10.9072 18.9171 10.7632 27.9881 10.7632 27.9881Z" fill="#32B768"/>
<path d="M27.5602 25.5809C24.5411 27.9477 21.7243 31.0568 20.8739 32.0152C20.7074 32.2042 20.6175 32.3122 20.6175 32.3122C12.6803 26.5708 16.01 13.0363 19.5556 12.0464C23.0967 11.052 24.1631 14.3141 24.1631 14.3141C36.1318 8.50075 31.1733 22.7462 27.5602 25.5809Z" fill="#278F51"/>
<path d="M27.5601 25.5809C24.5409 27.9477 21.7242 31.0568 20.8738 32.0152C16.4643 20.375 24.1585 14.3096 24.1585 14.3096C36.1317 8.50073 31.1732 22.7462 27.5601 25.5809Z" fill="#32B768"/>
<path d="M21.7695 4.87422C21.7695 4.87422 22.1789 1.07213 20.0101 0.212726C17.8414 -0.646682 14.1653 1.15312 13.0989 4.62675L21.7695 4.87422Z" fill="#32B768"/>
<path d="M8.34277 12.9328L21.7693 4.87418C21.7693 4.87418 19.7266 0.622146 15.29 2.42195C10.8535 4.22176 8.89621 10.2331 8.34277 12.9328Z" fill="#278F51"/>
<path d="M24.4016 30.6923C24.4016 30.6923 30.3815 29.149 32.2263 33.6305C34.0666 38.112 33.0722 45.3923 33.0722 45.3923L24.4016 30.6923Z" fill="#32B768"/>
<path d="M19.5105 33.2031L33.0721 45.3923C33.0676 45.3923 31.8932 23.2187 19.5105 33.2031Z" fill="#278F51"/>
<path d="M18.687 42.5082C14.8849 45.8153 5.68788 45.3698 5.68788 45.3698C3.42912 31.3223 11.1953 28.5686 14.0075 28.8431C16.8152 29.1176 17.5891 32.3122 17.5891 32.3122C22.8715 32.8027 22.4891 39.201 18.687 42.5082Z" fill="#278F51"/>
<path d="M18.6871 42.5082C14.885 45.8153 5.68799 45.3699 5.68799 45.3699C8.66217 34.1886 17.5847 32.3123 17.5847 32.3123C22.8716 32.8027 22.4892 39.2011 18.6871 42.5082Z" fill="#32B768"/>
<path d="M44.4514 33.9275C42.7011 37.2752 37.4502 41.9187 37.4502 41.9187C37.4502 41.9187 36.3838 37.7656 33.3376 35.0389C30.287 32.3077 29.828 27.1377 33.3376 25.7519C36.8473 24.3615 39.115 26.9983 39.115 26.9983C45.8643 23.9746 46.2018 30.5799 44.4514 33.9275Z" fill="#32B768"/>
<path d="M37.4551 41.9187C37.4551 41.9187 36.3887 37.7656 33.3425 35.0389C30.2918 32.3077 29.8329 27.1377 33.3425 25.7519C36.8521 24.3615 39.1199 26.9983 39.1199 26.9983C39.1199 26.9983 42.9175 31.5203 37.4551 41.9187Z" fill="#278F51"/>
</svg>
